<svg width="1300" height="221" viewBox="0 0 1723 221" fill="none" xmlns="http://www.w3.org/2000/svg">
<mask id="mask0_539_187" style="mask-type:luminance" maskUnits="userSpaceOnUse" x="26" y="0" width="189" height="165">
<path d="M26.3634 0H214.5V164.251H26.3634V0Z" fill="white"/>
</mask>
<g mask="url(#mask0_539_187)">
<path d="M30.9423 160.669V1.12305H106.62C122.899 1.12305 137.242 3.22602 149.561 7.3965C161.968 11.6025 172.353 17.3057 180.712 24.5059C189.028 31.7418 195.319 40.1896 199.543 49.8853C203.855 59.5088 206.055 69.7747 206.055 80.6817C206.055 92.8722 203.635 103.85 198.839 113.617C194.132 123.42 187.444 131.832 178.776 138.854C170.065 145.804 159.637 151.187 147.449 154.965C135.217 158.78 121.623 160.669 106.62 160.669H30.9423ZM151.145 80.6817C151.145 74.5159 150.089 68.9185 147.978 63.8571C145.953 58.7253 143.049 54.4121 139.177 50.8824C135.394 47.283 130.774 44.4671 125.274 42.4706C119.73 40.4034 113.527 39.3341 106.62 39.3341H84.9723V122.458H106.62C113.659 122.458 119.907 121.424 125.45 119.321C131.082 117.253 135.745 114.331 139.53 110.623C143.269 106.845 146.129 102.425 148.153 97.3637C150.133 92.2304 151.145 86.6705 151.145 80.6817Z" fill="white"/>
</g>
<path d="M293.573 163.014C280.472 163.014 268.948 161.35 259.045 158.055C249.23 154.653 240.904 150.189 234.157 144.592C227.496 139.03 222.457 132.547 219.083 125.177C215.665 117.808 214 110.12 214 102.078C214 93.965 215.665 86.2064 219.083 78.8374C222.457 71.4685 227.496 65.0206 234.157 59.4229C240.904 53.861 249.23 49.4317 259.045 46.1016C268.948 42.7006 280.472 41 293.573 41C306.411 41 317.804 42.7006 327.75 46.1016C337.653 49.4317 345.978 53.861 352.638 59.4229C359.387 65.0206 364.469 71.4685 367.887 78.8374C371.392 86.2064 373.145 93.965 373.145 102.078C373.145 110.12 371.392 117.808 367.887 125.177C364.469 132.547 359.387 139.03 352.638 144.592C345.978 150.189 337.653 154.653 327.75 158.055C317.804 161.35 306.411 163.014 293.573 163.014ZM267.808 102.078C267.808 109.944 270.174 116.108 274.994 120.643C279.77 125.106 285.948 127.303 293.573 127.303C301.022 127.303 307.156 125.106 311.976 120.643C316.752 116.108 319.162 109.944 319.162 102.078C319.162 94.1424 316.752 87.9776 311.976 83.5141C307.156 78.979 301.022 76.7122 293.573 76.7122C285.948 76.7122 279.77 78.979 274.994 83.5141C270.174 87.9776 267.808 94.1424 267.808 102.078Z" fill="white"/>
<path d="M428.848 161.45C413.978 161.45 402.56 157.85 394.683 150.616C386.895 143.31 383 132.656 383 118.687V41H436.105V109.136C436.105 114.375 437.521 118.402 440.353 121.252C443.274 124.103 447.257 125.528 452.213 125.528C456.33 125.528 460.533 124.78 464.781 123.248C469.03 121.752 473.322 118.402 477.704 113.27V41H530.631V111.987C530.631 116.085 531.561 118.936 533.464 120.54C535.323 122.072 538.686 122.963 543.554 123.248V159.168C538.111 159.917 533.331 160.488 529.216 160.88C525.055 161.236 521.471 161.45 518.418 161.45C500.362 161.45 489.919 155.997 487.086 145.058L486.023 140.781C479.164 148.122 470.977 153.396 461.418 156.604C451.948 159.811 441.105 161.45 428.848 161.45Z" fill="white"/>
<path d="M593.339 159.886L544 41H598.467L624.64 126.185L650.989 41H700.328L650.989 159.886H593.339Z" fill="white"/>
<path d="M780.277 162.014C767.41 162.014 755.964 160.385 745.975 157.196C735.941 154.008 727.498 149.65 720.69 144.159C713.965 138.596 708.841 132.255 705.305 125.169C701.768 118.012 700 110.502 700 102.637C700 94.1342 701.68 86.1274 705.128 78.5453C708.532 70.8932 713.612 64.2329 720.337 58.5644C727.144 52.8959 735.542 48.4324 745.442 45.1015C755.431 41.7007 767.057 40 780.277 40C793.229 40 804.723 41.7007 814.758 45.1015C824.745 48.4324 833.15 52.8609 839.868 58.4228C846.667 64.0198 851.796 70.4677 855.253 77.8374C858.784 85.2056 860.554 92.965 860.554 101.078C860.554 103.274 860.373 105.542 860.021 107.88C859.759 110.147 859.489 112.202 859.136 113.973H756.226C756.805 120.209 759.68 124.708 764.896 127.436C770.067 130.199 775.722 131.546 781.866 131.546C787.617 131.546 793.057 130.518 798.136 128.428C803.305 126.373 806.713 123.468 808.385 119.784L853.303 129.987C847.29 139.446 838.098 147.135 825.72 153.086C813.431 159.038 798.316 162.014 780.277 162.014ZM803.617 88.4649C802.65 82.7972 800.078 78.3687 795.842 75.1443C791.59 71.85 786.11 70.1853 779.392 70.1853C772.67 70.1853 767.192 71.85 762.952 75.1443C758.704 78.3687 756.1 82.7972 755.169 88.4649H803.617Z" fill="white"/>
<path d="M978.994 80.63C968.756 80.63 959.467 81.5564 951.059 83.3381C942.61 85.155 936.345 88.1486 932.199 92.3176V162.45H879V44.2804H927.756V66.8024C932.958 58.8206 939.404 52.6908 947.144 48.4147C954.974 44.1384 963.341 42 972.235 42C975.787 42 978.013 42.1069 978.994 42.2851V80.63Z" fill="white"/>
<path d="M1001.89 170.174C1010.37 172.633 1017.61 173.881 1023.61 173.881C1034.91 173.881 1041.1 168.642 1042.16 158.198L989 40H1043.39L1071.12 121.982L1093.73 40H1143L1093.37 172.313C1091.12 178.194 1087.95 183.47 1083.84 188.139C1079.82 192.88 1075 196.908 1069.36 200.259C1063.7 203.68 1057.39 206.283 1050.45 208.1C1043.61 209.882 1036.5 210.809 1029.09 210.809C1019.64 210.809 1010.59 209.383 1001.89 206.531V170.174Z" fill="white"/>
<path d="M10.1748 83.8884L10.4032 13.3081" stroke="#0567FF" stroke-width="20" stroke-miterlimit="10" stroke-linecap="round" stroke-linejoin="round"/>
<path d="M10 148.258L10.2139 77.6729" stroke="#00C9C9" stroke-width="20" stroke-miterlimit="10" stroke-linecap="round" stroke-linejoin="round"/>
<mask id="mask1_539_187" style="mask-type:luminance" maskUnits="userSpaceOnUse" x="26" y="0" width="189" height="165">
<path d="M26.3634 0H214.5V164.251H26.3634V0Z" fill="white"/>
</mask>
<g mask="url(#mask1_539_187)">
<path d="M30.9423 160.669V1.12305H106.62C122.899 1.12305 137.242 3.22602 149.561 7.3965C161.968 11.6025 172.353 17.3057 180.712 24.5059C189.028 31.7418 195.319 40.1896 199.543 49.8853C203.855 59.5088 206.055 69.7747 206.055 80.6817C206.055 92.8722 203.635 103.85 198.839 113.617C194.132 123.42 187.444 131.832 178.776 138.854C170.065 145.804 159.637 151.187 147.449 154.965C135.217 158.78 121.623 160.669 106.62 160.669H30.9423ZM151.145 80.6817C151.145 74.5159 150.089 68.9185 147.978 63.8571C145.953 58.7253 143.049 54.4121 139.177 50.8824C135.394 47.283 130.774 44.4671 125.274 42.4706C119.73 40.4034 113.527 39.3341 106.62 39.3341H84.9723V122.458H106.62C113.659 122.458 119.907 121.424 125.45 119.321C131.082 117.253 135.745 114.331 139.53 110.623C143.269 106.845 146.129 102.425 148.153 97.3637C150.133 92.2304 151.145 86.6705 151.145 80.6817Z" fill="white"/>
</g>
<path d="M293.573 163.014C280.472 163.014 268.948 161.35 259.045 158.055C249.23 154.653 240.904 150.189 234.157 144.592C227.496 139.03 222.457 132.547 219.083 125.177C215.665 117.808 214 110.12 214 102.078C214 93.965 215.665 86.2064 219.083 78.8374C222.457 71.4685 227.496 65.0206 234.157 59.4229C240.904 53.861 249.23 49.4317 259.045 46.1016C268.948 42.7006 280.472 41 293.573 41C306.411 41 317.804 42.7006 327.75 46.1016C337.653 49.4317 345.978 53.861 352.638 59.4229C359.387 65.0206 364.469 71.4685 367.887 78.8374C371.392 86.2064 373.145 93.965 373.145 102.078C373.145 110.12 371.392 117.808 367.887 125.177C364.469 132.547 359.387 139.03 352.638 144.592C345.978 150.189 337.653 154.653 327.75 158.055C317.804 161.35 306.411 163.014 293.573 163.014ZM267.808 102.078C267.808 109.944 270.174 116.108 274.994 120.643C279.77 125.106 285.948 127.303 293.573 127.303C301.022 127.303 307.156 125.106 311.976 120.643C316.752 116.108 319.162 109.944 319.162 102.078C319.162 94.1424 316.752 87.9776 311.976 83.5141C307.156 78.979 301.022 76.7122 293.573 76.7122C285.948 76.7122 279.77 78.979 274.994 83.5141C270.174 87.9776 267.808 94.1424 267.808 102.078Z" fill="white"/>
<path d="M428.848 161.45C413.978 161.45 402.56 157.85 394.683 150.616C386.895 143.31 383 132.656 383 118.687V41H436.105V109.136C436.105 114.375 437.521 118.402 440.353 121.252C443.274 124.103 447.257 125.528 452.213 125.528C456.33 125.528 460.533 124.78 464.781 123.248C469.03 121.752 473.322 118.402 477.704 113.27V41H530.631V111.987C530.631 116.085 531.561 118.936 533.464 120.54C535.323 122.072 538.686 122.963 543.554 123.248V159.168C538.111 159.917 533.331 160.488 529.216 160.88C525.055 161.236 521.471 161.45 518.418 161.45C500.362 161.45 489.919 155.997 487.086 145.058L486.023 140.781C479.164 148.122 470.977 153.396 461.418 156.604C451.948 159.811 441.105 161.45 428.848 161.45Z" fill="white"/>
<path d="M593.339 159.886L544 41H598.467L624.64 126.185L650.989 41H700.328L650.989 159.886H593.339Z" fill="white"/>
<path d="M780.277 162.014C767.41 162.014 755.964 160.385 745.975 157.196C735.941 154.008 727.498 149.65 720.69 144.159C713.965 138.596 708.841 132.255 705.305 125.169C701.768 118.012 700 110.502 700 102.637C700 94.1342 701.68 86.1274 705.128 78.5453C708.532 70.8932 713.612 64.2329 720.337 58.5644C727.144 52.8959 735.542 48.4324 745.442 45.1015C755.431 41.7007 767.057 40 780.277 40C793.229 40 804.723 41.7007 814.758 45.1015C824.745 48.4324 833.15 52.8609 839.868 58.4228C846.667 64.0198 851.796 70.4677 855.253 77.8374C858.784 85.2056 860.554 92.965 860.554 101.078C860.554 103.274 860.373 105.542 860.021 107.88C859.759 110.147 859.489 112.202 859.136 113.973H756.226C756.805 120.209 759.68 124.708 764.896 127.436C770.067 130.199 775.722 131.546 781.866 131.546C787.617 131.546 793.057 130.518 798.136 128.428C803.305 126.373 806.713 123.468 808.385 119.784L853.303 129.987C847.29 139.446 838.098 147.135 825.72 153.086C813.431 159.038 798.316 162.014 780.277 162.014ZM803.617 88.4649C802.65 82.7972 800.078 78.3687 795.842 75.1443C791.59 71.85 786.11 70.1853 779.392 70.1853C772.67 70.1853 767.192 71.85 762.952 75.1443C758.704 78.3687 756.1 82.7972 755.169 88.4649H803.617Z" fill="white"/>
<path d="M978.994 80.63C968.756 80.63 959.467 81.5564 951.059 83.3381C942.61 85.155 936.345 88.1486 932.199 92.3176V162.45H879V44.2804H927.756V66.8024C932.958 58.8206 939.404 52.6908 947.144 48.4147C954.974 44.1384 963.341 42 972.235 42C975.787 42 978.013 42.1069 978.994 42.2851V80.63Z" fill="white"/>
<path d="M1001.89 170.174C1010.37 172.633 1017.61 173.881 1023.61 173.881C1034.91 173.881 1041.1 168.642 1042.16 158.198L989 40H1043.39L1071.12 121.982L1093.73 40H1143L1093.37 172.313C1091.12 178.194 1087.95 183.47 1083.84 188.139C1079.82 192.88 1075 196.908 1069.36 200.259C1063.7 203.68 1057.39 206.283 1050.45 208.1C1043.61 209.882 1036.5 210.809 1029.09 210.809C1019.64 210.809 1010.59 209.383 1001.89 206.531V170.174Z" fill="white"/>
<path d="M10.1748 83.8884L10.4032 13.3081" stroke="#0567FF" stroke-width="20" stroke-miterlimit="10" stroke-linecap="round" stroke-linejoin="round"/>
<path d="M10 148.258L10.2139 77.6729" stroke="#00C9C9" stroke-width="20" stroke-miterlimit="10" stroke-linecap="round" stroke-linejoin="round"/>
<mask id="mask2_539_187" style="mask-type:luminance" maskUnits="userSpaceOnUse" x="26" y="0" width="189" height="165">
<path d="M26.3635 0H214.5V164.251H26.3635V0Z" fill="white"/>
</mask>
<g mask="url(#mask2_539_187)">
<path d="M30.9424 160.669V1.12305H106.62C122.899 1.12305 137.242 3.22602 149.561 7.3965C161.968 11.6025 172.353 17.3057 180.712 24.5059C189.028 31.7418 195.319 40.1896 199.543 49.8853C203.855 59.5088 206.055 69.7747 206.055 80.6817C206.055 92.8722 203.635 103.85 198.839 113.617C194.132 123.42 187.444 131.832 178.776 138.854C170.065 145.804 159.637 151.187 147.449 154.965C135.217 158.78 121.623 160.669 106.62 160.669H30.9424ZM151.145 80.6817C151.145 74.5159 150.089 68.9185 147.978 63.8571C145.954 58.7253 143.049 54.4121 139.177 50.8824C135.394 47.283 130.774 44.4671 125.274 42.4706C119.73 40.4034 113.527 39.3341 106.62 39.3341H84.9724V122.458H106.62C113.659 122.458 119.907 121.424 125.45 119.321C131.082 117.253 135.745 114.331 139.53 110.623C143.27 106.845 146.129 102.425 148.153 97.3637C150.133 92.2304 151.145 86.6705 151.145 80.6817Z" fill="white"/>
</g>
<path d="M293.573 163.014C280.472 163.014 268.948 161.35 259.045 158.055C249.23 154.653 240.904 150.189 234.157 144.592C227.496 139.03 222.457 132.547 219.083 125.177C215.665 117.808 214 110.12 214 102.078C214 93.965 215.665 86.2064 219.083 78.8374C222.457 71.4685 227.496 65.0206 234.157 59.4229C240.904 53.861 249.23 49.4317 259.045 46.1016C268.948 42.7006 280.472 41 293.573 41C306.411 41 317.804 42.7006 327.75 46.1016C337.653 49.4317 345.978 53.861 352.638 59.4229C359.387 65.0206 364.469 71.4685 367.887 78.8374C371.392 86.2064 373.145 93.965 373.145 102.078C373.145 110.12 371.392 117.808 367.887 125.177C364.469 132.547 359.387 139.03 352.638 144.592C345.978 150.189 337.653 154.653 327.75 158.055C317.804 161.35 306.411 163.014 293.573 163.014ZM267.808 102.078C267.808 109.944 270.174 116.108 274.994 120.643C279.77 125.106 285.948 127.303 293.573 127.303C301.022 127.303 307.156 125.106 311.976 120.643C316.752 116.108 319.162 109.944 319.162 102.078C319.162 94.1424 316.752 87.9776 311.976 83.5141C307.156 78.979 301.022 76.7122 293.573 76.7122C285.948 76.7122 279.77 78.979 274.994 83.5141C270.174 87.9776 267.808 94.1424 267.808 102.078Z" fill="white"/>
<path d="M428.848 161.45C413.978 161.45 402.56 157.85 394.683 150.616C386.895 143.31 383 132.656 383 118.687V41H436.105V109.136C436.105 114.375 437.521 118.402 440.353 121.252C443.274 124.103 447.257 125.528 452.213 125.528C456.33 125.528 460.533 124.78 464.781 123.248C469.03 121.752 473.322 118.402 477.704 113.27V41H530.631V111.987C530.631 116.085 531.561 118.936 533.464 120.54C535.323 122.072 538.686 122.963 543.554 123.248V159.168C538.111 159.917 533.331 160.488 529.216 160.88C525.055 161.236 521.471 161.45 518.418 161.45C500.362 161.45 489.919 155.997 487.086 145.058L486.023 140.781C479.164 148.122 470.977 153.396 461.418 156.604C451.948 159.811 441.105 161.45 428.848 161.45Z" fill="white"/>
<path d="M593.339 159.886L544 41H598.467L624.64 126.185L650.989 41H700.328L650.989 159.886H593.339Z" fill="white"/>
<path d="M780.277 162.014C767.41 162.014 755.964 160.385 745.975 157.196C735.941 154.008 727.498 149.65 720.69 144.159C713.965 138.596 708.841 132.255 705.305 125.169C701.768 118.012 700 110.502 700 102.637C700 94.1342 701.68 86.1274 705.128 78.5453C708.532 70.8932 713.612 64.2329 720.337 58.5644C727.144 52.8959 735.542 48.4324 745.442 45.1015C755.431 41.7007 767.057 40 780.277 40C793.229 40 804.723 41.7007 814.758 45.1015C824.745 48.4324 833.15 52.8609 839.868 58.4228C846.667 64.0198 851.796 70.4677 855.253 77.8374C858.784 85.2056 860.554 92.965 860.554 101.078C860.554 103.274 860.373 105.542 860.021 107.88C859.759 110.147 859.489 112.202 859.136 113.973H756.226C756.805 120.209 759.68 124.708 764.896 127.436C770.067 130.199 775.722 131.546 781.866 131.546C787.617 131.546 793.057 130.518 798.136 128.428C803.305 126.373 806.713 123.468 808.385 119.784L853.303 129.987C847.29 139.446 838.098 147.135 825.72 153.086C813.431 159.038 798.316 162.014 780.277 162.014ZM803.617 88.4649C802.65 82.7972 800.078 78.3687 795.842 75.1443C791.59 71.85 786.11 70.1853 779.392 70.1853C772.67 70.1853 767.192 71.85 762.952 75.1443C758.704 78.3687 756.1 82.7972 755.169 88.4649H803.617Z" fill="white"/>
<path d="M978.994 80.63C968.756 80.63 959.467 81.5564 951.059 83.3381C942.61 85.155 936.345 88.1486 932.199 92.3176V162.45H879V44.2804H927.756V66.8024C932.958 58.8206 939.404 52.6908 947.144 48.4147C954.974 44.1384 963.341 42 972.235 42C975.787 42 978.013 42.1069 978.994 42.2851V80.63Z" fill="white"/>
<path d="M1001.89 170.174C1010.37 172.633 1017.61 173.881 1023.61 173.881C1034.91 173.881 1041.1 168.642 1042.16 158.198L989 40H1043.39L1071.12 121.982L1093.73 40H1143L1093.37 172.313C1091.12 178.194 1087.95 183.47 1083.84 188.139C1079.82 192.88 1075 196.908 1069.36 200.259C1063.7 203.68 1057.39 206.283 1050.45 208.1C1043.61 209.882 1036.5 210.809 1029.09 210.809C1019.64 210.809 1010.59 209.383 1001.89 206.531V170.174Z" fill="white"/>
<mask id="mask3_539_187" style="mask-type:luminance" maskUnits="userSpaceOnUse" x="26" y="0" width="189" height="165">
<path d="M26.3635 0H214.5V164.251H26.3635V0Z" fill="white"/>
</mask>
<g mask="url(#mask3_539_187)">
<path d="M30.9424 160.669V1.12305H106.62C122.899 1.12305 137.242 3.22602 149.561 7.3965C161.968 11.6025 172.353 17.3057 180.712 24.5059C189.028 31.7418 195.319 40.1896 199.543 49.8853C203.855 59.5088 206.055 69.7747 206.055 80.6817C206.055 92.8722 203.635 103.85 198.839 113.617C194.132 123.42 187.444 131.832 178.776 138.854C170.065 145.804 159.637 151.187 147.449 154.965C135.217 158.78 121.623 160.669 106.62 160.669H30.9424ZM151.145 80.6817C151.145 74.5159 150.089 68.9185 147.978 63.8571C145.954 58.7253 143.049 54.4121 139.177 50.8824C135.394 47.283 130.774 44.4671 125.274 42.4706C119.73 40.4034 113.527 39.3341 106.62 39.3341H84.9724V122.458H106.62C113.659 122.458 119.907 121.424 125.45 119.321C131.082 117.253 135.745 114.331 139.53 110.623C143.27 106.845 146.129 102.425 148.153 97.3637C150.133 92.2304 151.145 86.6705 151.145 80.6817Z" fill="white"/>
</g>
<path d="M293.573 163.014C280.472 163.014 268.948 161.35 259.045 158.055C249.23 154.653 240.904 150.189 234.157 144.592C227.496 139.03 222.457 132.547 219.083 125.177C215.665 117.808 214 110.12 214 102.078C214 93.965 215.665 86.2064 219.083 78.8374C222.457 71.4685 227.496 65.0206 234.157 59.4229C240.904 53.861 249.23 49.4317 259.045 46.1016C268.948 42.7006 280.472 41 293.573 41C306.411 41 317.804 42.7006 327.75 46.1016C337.653 49.4317 345.978 53.861 352.638 59.4229C359.387 65.0206 364.469 71.4685 367.887 78.8374C371.392 86.2064 373.145 93.965 373.145 102.078C373.145 110.12 371.392 117.808 367.887 125.177C364.469 132.547 359.387 139.03 352.638 144.592C345.978 150.189 337.653 154.653 327.75 158.055C317.804 161.35 306.411 163.014 293.573 163.014ZM267.808 102.078C267.808 109.944 270.174 116.108 274.994 120.643C279.77 125.106 285.948 127.303 293.573 127.303C301.022 127.303 307.156 125.106 311.976 120.643C316.752 116.108 319.162 109.944 319.162 102.078C319.162 94.1424 316.752 87.9776 311.976 83.5141C307.156 78.979 301.022 76.7122 293.573 76.7122C285.948 76.7122 279.77 78.979 274.994 83.5141C270.174 87.9776 267.808 94.1424 267.808 102.078Z" fill="white"/>
<path d="M428.848 161.45C413.978 161.45 402.56 157.85 394.683 150.616C386.895 143.31 383 132.656 383 118.687V41H436.105V109.136C436.105 114.375 437.521 118.402 440.353 121.252C443.274 124.103 447.257 125.528 452.213 125.528C456.33 125.528 460.533 124.78 464.781 123.248C469.03 121.752 473.322 118.402 477.704 113.27V41H530.631V111.987C530.631 116.085 531.561 118.936 533.464 120.54C535.323 122.072 538.686 122.963 543.554 123.248V159.168C538.111 159.917 533.331 160.488 529.216 160.88C525.055 161.236 521.471 161.45 518.418 161.45C500.362 161.45 489.919 155.997 487.086 145.058L486.023 140.781C479.164 148.122 470.977 153.396 461.418 156.604C451.948 159.811 441.105 161.45 428.848 161.45Z" fill="white"/>
<path d="M593.339 159.886L544 41H598.467L624.64 126.185L650.989 41H700.328L650.989 159.886H593.339Z" fill="white"/>
<path d="M780.277 162.014C767.41 162.014 755.964 160.385 745.975 157.196C735.941 154.008 727.498 149.65 720.69 144.159C713.965 138.596 708.841 132.255 705.305 125.169C701.768 118.012 700 110.502 700 102.637C700 94.1342 701.68 86.1274 705.128 78.5453C708.532 70.8932 713.612 64.2329 720.337 58.5644C727.144 52.8959 735.542 48.4324 745.442 45.1015C755.431 41.7007 767.057 40 780.277 40C793.229 40 804.723 41.7007 814.758 45.1015C824.745 48.4324 833.15 52.8609 839.868 58.4228C846.667 64.0198 851.796 70.4677 855.253 77.8374C858.784 85.2056 860.554 92.965 860.554 101.078C860.554 103.274 860.373 105.542 860.021 107.88C859.759 110.147 859.489 112.202 859.136 113.973H756.226C756.805 120.209 759.68 124.708 764.896 127.436C770.067 130.199 775.722 131.546 781.866 131.546C787.617 131.546 793.057 130.518 798.136 128.428C803.305 126.373 806.713 123.468 808.385 119.784L853.303 129.987C847.29 139.446 838.098 147.135 825.72 153.086C813.431 159.038 798.316 162.014 780.277 162.014ZM803.617 88.4649C802.65 82.7972 800.078 78.3687 795.842 75.1443C791.59 71.85 786.11 70.1853 779.392 70.1853C772.67 70.1853 767.192 71.85 762.952 75.1443C758.704 78.3687 756.1 82.7972 755.169 88.4649H803.617Z" fill="white"/>
<path d="M978.994 80.63C968.756 80.63 959.467 81.5564 951.059 83.3381C942.61 85.155 936.345 88.1486 932.199 92.3176V162.45H879V44.2804H927.756V66.8024C932.958 58.8206 939.404 52.6908 947.144 48.4147C954.974 44.1384 963.341 42 972.235 42C975.787 42 978.013 42.1069 978.994 42.2851V80.63Z" fill="white"/>
<path d="M1001.89 170.174C1010.37 172.633 1017.61 173.881 1023.61 173.881C1034.91 173.881 1041.1 168.642 1042.16 158.198L989 40H1043.39L1071.12 121.982L1093.73 40H1143L1093.37 172.313C1091.12 178.194 1087.95 183.47 1083.84 188.139C1079.82 192.88 1075 196.908 1069.36 200.259C1063.7 203.68 1057.39 206.283 1050.45 208.1C1043.61 209.882 1036.5 210.809 1029.09 210.809C1019.64 210.809 1010.59 209.383 1001.89 206.531V170.174Z" fill="white"/>
<path d="M1221 166C1221 156.667 1222.87 142.667 1226.6 124H1197L1186 181H1144.2L1169.6 49H1211.8L1200.2 108H1229.8L1240.8 49H1283C1281.13 58.8667 1279 69.3333 1276.6 80.4L1269.8 113C1264.73 138.333 1262.2 156.533 1262.2 167.6C1262.2 172.133 1262.93 175.667 1264.4 178.2C1257.73 182.733 1250.47 185 1242.6 185C1234.87 185 1229.33 183.133 1226 179.4C1222.67 175.667 1221 171.2 1221 166ZM1368.81 147.2C1372.14 149.467 1373.81 153.133 1373.81 158.2C1373.81 163.133 1372.54 167.2 1370.01 170.4C1367.47 173.6 1364.14 176.267 1360.01 178.4C1351.47 182.8 1342.61 185 1333.41 185C1324.21 185 1316.87 184 1311.41 182C1306.07 180 1301.61 177.133 1298.01 173.4C1290.94 166.333 1287.41 156.333 1287.41 143.4C1287.41 123.267 1292.87 107.067 1303.81 94.8C1315.54 81.6 1331.61 75 1352.01 75C1364.67 75 1374.14 77.6667 1380.41 83C1385.07 87 1387.41 92.2667 1387.41 98.8C1387.41 122.267 1367.14 134 1326.61 134C1326.07 137.467 1325.81 140.667 1325.81 143.6C1325.81 149.733 1327.14 154 1329.81 156.4C1332.61 158.667 1336.54 159.8 1341.61 159.8C1346.67 159.8 1351.87 158.667 1357.21 156.4C1362.67 154 1366.54 150.933 1368.81 147.2ZM1328.01 125.4C1337.47 125.4 1344.94 122.467 1350.41 116.6C1355.87 111 1358.61 103.733 1358.61 94.8C1358.61 91.7333 1358.01 89.4 1356.81 87.8C1355.74 86.0667 1354.07 85.2 1351.81 85.2C1349.54 85.2 1347.41 85.6667 1345.41 86.6C1343.54 87.4 1341.61 89.2667 1339.61 92.2C1334.67 98.8667 1330.81 109.933 1328.01 125.4ZM1442.05 170C1437.92 180 1429.25 185 1416.05 185C1409.38 185 1403.92 182.667 1399.65 178C1396.18 174.133 1394.45 170 1394.45 165.6C1394.45 155.6 1396.78 139.667 1401.45 117.8L1416.05 41L1456.65 37L1437.25 138.2C1434.98 148.067 1433.85 154.733 1433.85 158.2C1433.85 165.8 1436.58 169.733 1442.05 170ZM1552.3 167.4C1546.7 173 1540.03 177.333 1532.3 180.4C1524.7 183.467 1517.1 185 1509.5 185C1501.9 185 1496.76 184.333 1494.1 183L1487.9 217L1447.3 221L1474.9 79L1507.5 75.6L1504.9 89.4C1510.5 79.9333 1519.1 75.2 1530.7 75.2C1543.76 75.2 1553.76 79.4 1560.7 87.8C1566.83 95.4 1569.9 105 1569.9 116.6C1569.9 128.2 1568.36 138.133 1565.3 146.4C1562.23 154.667 1557.9 161.667 1552.3 167.4ZM1496.5 169.8C1499.3 172.2 1502.43 173.4 1505.9 173.4C1509.36 173.4 1512.1 172.733 1514.1 171.4C1516.1 170.067 1517.83 168.067 1519.3 165.4C1523.3 158.2 1526.9 143.667 1530.1 121.8C1531.03 115.4 1531.5 109.067 1531.5 102.8C1531.5 96.5333 1530.76 92.4 1529.3 90.4C1527.96 88.4 1525.96 87.4 1523.3 87.4C1515.16 87.4 1509.76 95.3333 1507.1 111.2L1496.5 169.8Z" fill="#55D799"/>
</svg>
