<svg width="35" height="35" viewBox="0 0 35 35" fill="none" xmlns="http://www.w3.org/2000/svg">
<g clip-path="url(#clip0_302_3)">
<path fill-rule="evenodd" clip-rule="evenodd" d="M75.6481 9.26454L75.3178 7.6961H70.7284V26.2942H76.0309V13.6724C77.2855 12.0317 79.4019 12.3511 80.0756 12.56V7.69829C79.3691 7.44454 76.8895 6.9786 75.6481 9.26235V9.26454ZM65.0059 3.08923L59.8259 4.18954L59.8041 21.2105C59.8041 24.3495 62.1644 26.6716 65.3144 26.6716C67.048 26.6716 68.3287 26.3413 69.0386 25.9683V21.648C68.3583 21.9192 65.0103 22.8927 65.0103 19.7667V12.2199H69.0386V7.69501H65.0103L65.0059 3.08923ZM50.6406 13.0927C50.6406 12.2636 51.3297 11.9442 52.4431 11.9442C54.2863 11.9841 56.0948 12.4522 57.7259 13.3114V8.31298C56.0441 7.65169 54.2502 7.32188 52.4431 7.34173C48.1513 7.34173 45.2714 9.59048 45.2714 13.3442C45.2714 19.2177 53.3378 18.2639 53.3378 20.7959C53.3378 21.7869 52.4847 22.0931 51.3002 22.0931C49.5436 22.0931 47.2752 21.3669 45.4956 20.3978V25.4619C47.3275 26.2587 49.3025 26.6744 51.3002 26.6836C55.7112 26.6836 58.7519 24.5049 58.7519 20.6844C58.7519 14.345 50.6395 15.4781 50.6395 13.0905L50.6406 13.0927ZM15.1813 10.4075C15.1813 8.90907 16.4281 8.32939 18.4428 8.32939C21.7772 8.40142 25.0491 9.24805 28 10.8024V1.75704C24.9572 0.561259 21.7119 -0.0348401 18.4428 0.00157298C10.6772 0.00157298 5.46875 4.06923 5.46875 10.8614C5.46875 21.4883 20.0616 19.7624 20.0616 24.343C20.0616 26.1345 18.5303 26.6902 16.3756 26.6902C13.1983 26.6902 9.09453 25.3755 5.87563 23.6255V32.7889C9.1897 34.2309 12.7626 34.9834 16.3767 35.0005C24.3578 35.0005 29.8594 31.0575 29.8594 24.1472C29.8594 12.6781 15.1813 14.7267 15.1813 10.4097V10.4075Z" fill="#6772E5"/>
</g>
<defs>
<clipPath id="clip0_302_3">
<rect width="35" height="35" fill="white"/>
</clipPath>
</defs>
</svg>
